<svg xmlns:dc="http://purl.org/dc/elements/1.1/" xmlns:cc="http://creativecommons.org/ns#" xmlns:rdf="http://www.w3.org/1999/02/22-rdf-syntax-ns#" xmlns:svg="http://www.w3.org/2000/svg" xmlns="http://www.w3.org/2000/svg" xmlns:xlink="http://www.w3.org/1999/xlink" id="svg689171" viewBox="0 0 1024 768" version="1.1"><metadata id="metadata689177"><rdf:rdf><cc:work rdf:about=""><dc:format>image/svg+xml</dc:format><dc:type rdf:resource="http://purl.org/dc/dcmitype/StillImage"/></cc:work></rdf:rdf></metadata><defs id="defs689175"/><linearGradient spreadMethod="pad" y2="30%" x2="-10%" y1="120%" x1="30%" id="3d_gradient2-logo-e6cf595c-08d2-4221-9f41-5c738d903262"><stop id="stop689152" stop-opacity="1" stop-color="#ffffff" offset="0%"/><stop id="stop689154" stop-opacity="1" stop-color="#000000" offset="100%"/></linearGradient><linearGradient gradientTransform="rotate(-30)" spreadMethod="pad" y2="30%" x2="-10%" y1="120%" x1="30%" id="3d_gradient3-logo-e6cf595c-08d2-4221-9f41-5c738d903262"><stop id="stop689157" stop-opacity="1" stop-color="#ffffff" offset="0%"/><stop id="stop689159" stop-opacity="1" stop-color="#cccccc" offset="50%"/><stop id="stop689161" stop-opacity="1" stop-color="#000000" offset="100%"/></linearGradient><g id="logo-group"><image xlink:href="" id="container" x="272" y="144" width="480" height="480" style="display: none;" transform="translate(0 0)"/><g id="logo-center" transform="translate(0 0)"><image xlink:href="" id="icon_container" x="0" y="0" style="display: none;"/><g id="slogan" style="font-style:normal;font-weight:700;font-size:32px;line-height:1;font-family:Nunito;font-variant-ligatures:none;text-align:center;text-anchor:middle" transform="translate(0 0)"/><g id="title" style="font-style:normal;font-weight:400;font-size:72px;line-height:1;font-family:'Brandmark Dots 1 Color';font-variant-ligatures:normal;text-align:center;text-anchor:middle" transform="translate(0 0)"><path id="path689180" style="font-style:normal;font-weight:400;font-size:72px;line-height:1;font-family:'Brandmark Dots 1 Color';font-variant-ligatures:normal;text-align:center;text-anchor:middle" d="m 393.16456,-0.432 c 2.376,1.08 5.184,0.072 6.336,-2.304 l 4.536,-9.504 h 24.192 c 1.656,0 3.096,-0.864 3.96,-2.16 1.656,-2.448 0.36,-4.536 -0.432,-6.192 l -12.816,-27.072 c -0.792,-1.656 -2.52,-2.736 -4.32,-2.736 -1.872,0 -3.528,1.08 -4.32,2.736 l -19.44,40.824 c -1.08,2.376 -0.072,5.256 2.304,6.408 z m 21.456,-34.128 6.768,14.112 h -13.464 z m 19.368,24.984 c -2.592,0 -4.752,2.16 -4.752,4.824 0,2.592 2.16,4.752 4.752,4.752 2.664,0 4.824,-2.16 4.824,-4.752 0,-2.664 -2.16,-4.824 -4.824,-4.824 z" stroke-width="0" stroke-linejoin="miter" stroke-miterlimit="2" fill="#303a5b" stroke="#303a5b" transform="translate(0 324.38800000000003) translate(283.83993235 17.528000000000006) scale(1.67) translate(-390.42822 50.4)"/><path id="path689182" style="font-style:normal;font-weight:400;font-size:72px;line-height:1;font-family:'Brandmark Dots 1 Color';font-variant-ligatures:normal;text-align:center;text-anchor:middle" d="m 480.18781,-7.344 -11.448,-17.856 3.672,-5.76 c 1.44,-2.232 0.792,-5.184 -1.44,-6.552 -2.232,-1.44 -5.184,-0.792 -6.552,1.44 l -1.296,2.016 -9.072,-14.112 c -1.44,-2.232 -4.392,-2.88 -6.552,-1.44 -2.232,1.368 -2.88,4.32 -1.512,6.552 l 11.448,17.856 -11.448,17.856 c -1.368,2.232 -0.72,5.184 1.512,6.624 2.232,1.368 5.184,0.72 6.552,-1.512 l 9.072,-14.112 9,14.112 c 1.44,2.232 4.392,2.88 6.624,1.512 2.16,-1.44 2.808,-4.392 1.44,-6.624 z m -4.032,-43.056 c -2.664,0 -4.752,2.16 -4.752,4.752 0,2.664 2.088,4.824 4.752,4.824 2.592,0 4.752,-2.16 4.752,-4.824 0,-2.592 -2.16,-4.752 -4.752,-4.752 z" stroke-width="0" stroke-linejoin="miter" stroke-miterlimit="2" fill="#564057" stroke="#564057" transform="translate(0 324.38800000000003) translate(385.45193405 17.528000000000006) scale(1.67) translate(-445.27373 50.4)"/><path id="path689184" style="font-style:normal;font-weight:400;font-size:72px;line-height:1;font-family:'Brandmark Dots 1 Color';font-variant-ligatures:normal;text-align:center;text-anchor:middle" d="m 498.28119,0 c 2.664,0 4.824,-2.16 4.824,-4.752 v -27.864 c 0,-2.592 -2.16,-4.752 -4.824,-4.752 -2.592,0 -4.752,2.16 -4.752,4.752 v 27.864 c 0,2.592 2.16,4.752 4.752,4.752 z m 0,-42.12 c 2.664,0 4.824,-2.16 4.824,-4.824 0,-2.592 -2.16,-4.752 -4.824,-4.752 -2.592,0 -4.752,2.16 -4.752,4.752 0,2.664 2.16,4.824 4.752,4.824 z" stroke-width="0" stroke-linejoin="miter" stroke-miterlimit="2" fill="#7c4653" stroke="#7c4653" transform="translate(0 324.38800000000003) translate(476.05855225000005 15.363680000000002) scale(1.67) translate(-493.52919 51.696)"/><path id="path689186" style="font-style:normal;font-weight:400;font-size:72px;line-height:1;font-family:'Brandmark Dots 1 Color';font-variant-ligatures:normal;text-align:center;text-anchor:middle" d="m 551.72094,-13.248 c 0,-8.856 -8.136,-12.744 -17.352,-16.272 -7.488,-2.88 -10.008,-4.824 -10.008,-7.128 0,-3.528 3.384,-6.048 8.208,-6.048 5.544,0 8.568,3.024 9.864,4.176 1.8,1.584 4.392,1.8 6.12,-0.36 1.296,-1.656 1.512,-3.96 0.216,-5.688 -1.872,-2.664 -7.488,-7.128 -15.912,-7.128 -7.416,0 -11.664,2.736 -13.968,5.04 -2.664,2.736 -4.104,6.264 -4.104,10.008 0.072,9.864 10.008,12.816 16.632,15.192 7.344,2.664 10.728,4.608 10.728,7.632 0,2.52 -1.512,4.32 -3.528,5.256 -2.592,1.224 -5.256,0.36 -7.704,0.216 -2.376,-0.144 -4.392,1.512 -4.392,4.536 0,3.672 5.04,5.112 8.784,5.112 11.448,0 16.416,-7.416 16.416,-14.544 z m -33.048,-1.656 c -2.592,0 -4.752,2.088 -4.752,4.752 0,2.664 2.16,4.752 4.752,4.752 2.664,0 4.824,-2.088 4.824,-4.752 0,-2.664 -2.16,-4.752 -4.824,-4.752 z" stroke-width="0" stroke-linejoin="miter" stroke-miterlimit="2" fill="#a34d4e" stroke="#a34d4e" transform="translate(0 324.38800000000003) translate(520.13277475 15.363680000000002) scale(1.67) translate(-513.92094 51.696)"/><path id="path689188" style="font-style:normal;font-weight:400;font-size:72px;line-height:1;font-family:'Brandmark Dots 1 Color';font-variant-ligatures:normal;text-align:center;text-anchor:middle" d="m 582.84631,-4.752 c 0,-2.664 -2.088,-4.824 -4.752,-4.824 h -5.328 v -36.072 c 0,-2.592 -2.16,-4.752 -4.824,-4.752 -2.592,0 -4.752,2.16 -4.752,4.752 v 40.896 c 0,2.592 2.16,4.752 4.752,4.752 h 10.152 c 2.664,0 4.752,-2.16 4.752,-4.752 z m 9.576,4.752 c 2.664,0 4.752,-2.16 4.752,-4.752 0,-2.664 -2.088,-4.824 -4.752,-4.824 -2.664,0 -4.752,2.16 -4.752,4.824 0,2.592 2.088,4.752 4.752,4.752 z" stroke-width="0" stroke-linejoin="miter" stroke-miterlimit="2" fill="#c9534a" stroke="#c9534a" transform="translate(0 324.38800000000003) translate(612.43262265 17.528000000000006) scale(1.67) translate(-563.19031 50.4)"/><path id="path689190" style="font-style:normal;font-weight:400;font-size:72px;line-height:1;font-family:'Brandmark Dots 1 Color';font-variant-ligatures:normal;text-align:center;text-anchor:middle" d="m 625.24981,-30.888 c 1.44,-2.232 0.792,-5.184 -1.44,-6.624 -2.232,-1.368 -5.184,-0.72 -6.624,1.512 l -3.6,5.688 -11.304,-17.856 c -1.368,-2.232 -4.32,-2.88 -6.552,-1.512 -2.232,1.44 -2.88,4.392 -1.512,6.624 l 14.688,23.04 -0.072,15.264 c 0,2.592 2.16,4.752 4.824,4.752 2.592,0 4.752,-2.16 4.752,-4.752 V -20.16 Z m 3.672,-19.512 c -2.664,0 -4.752,2.16 -4.752,4.752 0,2.664 2.088,4.824 4.752,4.824 2.664,0 4.752,-2.16 4.752,-4.824 0,-2.592 -2.088,-4.752 -4.752,-4.752 z" stroke-width="0" stroke-linejoin="miter" stroke-miterlimit="2" fill="#ef5946" stroke="#ef5946" transform="translate(0 324.38800000000003) translate(673.0760340500001 17.528000000000006) scale(1.67) translate(-593.50373 50.4)"/></g><image xlink:href="" id="icon" x="0" y="0" style="display: none;"/></g></g></svg>